<svg width="21" height="21" viewBox="0 0 21 21" fill="none" xmlns="http://www.w3.org/2000/svg">
    <path d="M19.6548 12.9233C19.0548 12.9233 18.6548 13.3233 18.6548 13.9233V17.9233C18.6548 18.5233 18.2548 18.9233 17.6548 18.9233H3.65485C3.05485 18.9233 2.65485 18.5233 2.65485 17.9233V13.9233C2.65485 13.3233 2.25485 12.9233 1.65485 12.9233C1.05485 12.9233 0.654846 13.3233 0.654846 13.9233V17.9233C0.654846 19.6233 1.95485 20.9233 3.65485 20.9233H17.6548C19.3548 20.9233 20.6548 19.6233 20.6548 17.9233V13.9233C20.6548 13.3233 20.2548 12.9233 19.6548 12.9233Z" fill="white"/>
    <path d="M9.95485 14.6233C10.0548 14.7233 10.1548 14.8233 10.2548 14.8233C10.3548 14.9233 10.5548 14.9233 10.6548 14.9233C10.7548 14.9233 10.9548 14.9233 11.0548 14.8233C11.1548 14.7233 11.2548 14.7233 11.3548 14.6233L16.3548 9.62334C16.7548 9.22334 16.7548 8.62334 16.3548 8.22334C15.9548 7.82334 15.3548 7.82334 14.9548 8.22334L11.6548 11.5233V1.92334C11.6548 1.32334 11.2548 0.92334 10.6548 0.92334C10.0548 0.92334 9.65485 1.32334 9.65485 1.92334V11.5233L6.35485 8.22334C5.95485 7.82334 5.35485 7.82334 4.95485 8.22334C4.55485 8.62334 4.55485 9.22334 4.95485 9.62334L9.95485 14.6233Z" fill="white"/>
</svg>    