<svg width="21" height="25" viewBox="0 0 21 25" fill="none" xmlns="http://www.w3.org/2000/svg">
    <path d="M20.1305 12.1621C19.7938 14.4289 18.7837 16.3599 17.1843 17.955C16.2584 18.7946 15.4166 19.7181 14.4906 20.5577C13.1438 21.9849 11.7969 23.4961 10.4501 24.9233C7.58806 21.9849 4.8102 19.4662 2.2007 16.6957C0.685504 15.0166 0.0962609 12.8337 0.180438 10.567C0.264616 5.69753 4.05261 1.49976 8.76655 0.996025C14.0697 0.408336 18.6153 3.43073 19.9622 8.38411C20.2989 9.39157 20.1305 11.9942 20.1305 12.1621ZM10.1976 14.177C11.9653 14.177 13.4805 12.7498 13.4805 10.9867C13.4805 9.22366 11.9653 7.71246 10.2817 7.71246C8.59819 7.71246 6.99882 9.22366 6.99882 10.9028C6.99882 12.6658 8.42984 14.177 10.1976 14.177Z"/>
</svg>