<svg width="10" height="14" viewBox="0 0 10 14" fill="none" xmlns="http://www.w3.org/2000/svg">
    <path d="M10.0017 7.8174C9.95359 6.36805 8.33471 4.95015 8.33471 3.5C8.33471 1.56966 6.83979 0 5.00137 0C3.16296 0 1.66804 1.56966 1.66804 3.5C1.66804 4.95015 0.0461702 6.36653 0.000909062 7.81597C0.000304596 7.83533 0 7.85477 0 7.87428V12.2486C0 13.2152 0.747458 14 1.66804 14H8.33471C9.25529 14 10.0027 13.2152 10.0027 12.2486V7.87428C10.0027 7.85525 10.0024 7.83629 10.0017 7.8174ZM5.82853 9.62572C5.838 10.1778 5.41632 10.7027 5.41632 11.2548V11.8129C5.41632 12.0552 5.22946 12.2514 4.99863 12.2514C4.76779 12.2514 4.58093 12.0552 4.58093 11.8129V11.2562C4.58093 10.7032 4.16323 10.1787 4.16323 9.62572C4.16323 9.14097 4.53696 8.75144 4.99588 8.75144C5.4548 8.75144 5.82853 9.14386 5.82853 9.62572ZM6.66667 4.45905C6.66667 5.37953 5.92048 6.12572 5 6.12572C4.07953 6.12572 3.33333 5.37953 3.33333 4.45905V3.5C3.33333 2.53339 4.08079 1.74856 5.00137 1.74856C5.91921 1.74856 6.66667 2.53339 6.66667 3.5V4.45905Z" fill="currentColor"/>
</svg>    