<svg width="74" height="76" viewBox="0 0 74 76" fill="none" xmlns="http://www.w3.org/2000/svg">
<path d="M74 72.5109C72.1391 73.692 69.944 74.3718 67.1917 74.5501V59.9863L74 51.0831V46.1357C73.8886 46.2137 73.7994 46.3139 73.7103 46.4254L67.1917 54.9497V44.1522C67.1917 43.3054 66.512 42.6256 65.6651 42.6256C64.8183 42.6256 64.1385 43.3054 64.1385 44.1522V63.1954L57.6088 54.6711C57.0962 54.0025 56.1379 53.8688 55.4694 54.3814C54.8008 54.894 54.6671 55.8523 55.1796 56.5208L64.1274 68.2209V74.5389C56.8511 74.0709 53.5194 70.1263 49.8756 62.7274C50.2211 62.2371 50.5442 61.7357 50.8451 61.212C56.2159 52.1194 53.3299 42.9376 49.9648 36.8425C46.1093 29.867 43.435 23.8387 41.0839 18.5235C40.159 16.451 39.301 14.501 38.443 12.6958C41.7302 8.65094 46.1428 5.97664 49.5525 4.37206C52.4273 3.01263 55.5028 1.97634 58.5448 1.31891H49.2739C44.6607 3.3692 40.3373 6.23293 37.0724 9.8878C35.2116 6.28864 33.2838 3.39149 30.8324 1.31891H24.9712C29.551 2.84549 32.2364 6.53379 35.1001 12.3727C34.7547 12.863 34.4316 13.3644 34.1307 13.8881C28.7598 22.9807 31.6458 32.1625 35.011 38.2576C38.8664 45.2331 41.5407 51.2614 43.8919 56.5766C44.8167 58.6491 45.6748 60.5991 46.5328 62.4043C43.2456 66.4603 38.833 69.1346 35.4233 70.7392C30.7433 72.9455 25.5172 74.3049 20.8484 74.5501V68.232L29.7961 56.532C30.3087 55.8634 30.1861 54.9051 29.5064 54.3925C28.8378 53.88 27.8795 54.0025 27.367 54.6823L20.8484 63.2066V44.1634C20.8484 43.3165 20.1686 42.6368 19.3218 42.6368C18.4749 42.6368 17.7952 43.3165 17.7952 44.1634V54.9608L11.2543 46.4254C10.7418 45.7568 9.78347 45.6231 9.11489 46.1357C8.44632 46.6482 8.3126 47.6065 8.82518 48.2751L17.7729 59.9751V74.5389C13.0929 74.2938 7.86689 72.9343 3.19801 70.728C2.19515 70.2712 1.11429 69.7029 0 69.0455V72.366C2.20629 73.5583 4.53516 74.5389 6.86403 75.3189H31.7238C37.7633 73.302 43.7025 69.9035 47.8922 65.2123C50.2768 69.8143 52.7505 73.2686 56.3274 75.3189H73.9889V72.5109H74ZM46.5105 55.4065C44.1259 50.0357 41.4293 43.9516 37.5181 36.8648C33.1724 28.9979 32.8493 21.7996 36.5376 15.4704C37.1393 16.7964 37.7744 18.2115 38.443 19.7158C40.8276 25.0867 43.5242 31.1707 47.4353 38.2576C51.7811 46.1245 52.1042 53.3228 48.4159 59.652C47.8142 58.326 47.179 56.9108 46.5105 55.4065Z" fill="white"/>
<path d="M0.156001 19.7047C4.66888 9.55348 7.38774 3.41374 13.6501 1.33002H7.78889C4.64659 3.97088 2.38458 7.96004 0 13.0412V20.0612C0.0557145 19.9498 0.111429 19.8272 0.156001 19.7047Z" fill="white"/>
</svg>