<svg width="19" height="20" viewBox="0 0 19 20" fill="none" xmlns="http://www.w3.org/2000/svg">
    <path d="M16.6041 8.79373C16.2607 8.79373 15.9448 8.90069 15.6796 9.07897C15.4533 8.42133 14.8331 7.9499 14.1077 7.9499C13.7645 7.9499 13.4485 8.05686 13.1833 8.23514C12.9571 7.5775 12.3369 7.10605 11.6115 7.10605C11.3072 7.10605 11.0225 7.18925 10.7807 7.33187V4.56662C10.7807 3.63564 10.0357 2.875 9.11519 2.875C8.19469 2.875 7.44972 3.63167 7.44972 4.56662V11.7491L6.00265 10.6478C5.14457 9.99411 3.92764 10.0813 3.16705 10.8538C2.67951 11.349 2.67951 12.1532 3.16705 12.6445L9.09178 18.6623C9.79776 19.3793 10.7417 19.7754 11.7402 19.7754H13.6904C16.2139 19.7754 18.2656 17.6917 18.2656 15.1284V10.4814C18.2695 9.5504 17.5206 8.79373 16.6041 8.79373ZM17.4348 15.1324C17.4348 17.2281 15.7537 18.9356 13.6904 18.9356H11.7402C10.9601 18.9356 10.2307 18.6265 9.68075 18.068L3.75602 12.0502C3.5922 11.8838 3.5922 11.6184 3.75602 11.452C4.01344 11.1905 4.35667 11.0558 4.70382 11.0558C4.98465 11.0558 5.26937 11.143 5.5034 11.3252L7.61353 12.9337C7.73835 13.0287 7.90995 13.0446 8.05037 12.9733C8.19079 12.902 8.28049 12.7554 8.28049 12.5969V4.56662C8.28049 4.09915 8.65494 3.72279 9.11128 3.72279C9.56764 3.72279 9.94207 4.10312 9.94207 4.56662V10.9053C9.94207 11.139 10.1293 11.3292 10.3594 11.3292C10.5895 11.3292 10.7768 11.139 10.7768 10.9053V8.79373C10.7768 8.32625 11.1512 7.9499 11.6075 7.9499C12.0639 7.9499 12.4383 8.33021 12.4383 8.79373V10.9053C12.4383 11.139 12.6256 11.3292 12.8557 11.3292C13.0858 11.3292 13.273 11.139 13.273 10.9053V9.63756C13.273 9.17009 13.6475 8.79373 14.1038 8.79373C14.5602 8.79373 14.9346 9.17405 14.9346 9.63756V10.9053C14.9346 11.139 15.1218 11.3292 15.352 11.3292C15.5821 11.3292 15.7693 11.139 15.7693 10.9053V10.4814C15.7693 10.0139 16.1438 9.63756 16.6 9.63756C17.0564 9.63756 17.4309 10.0179 17.4309 10.4814L17.4348 15.1324Z" fill="currentColor"/>
    <path d="M15.9924 3.94235L17.4237 2.45653L15.9924 0.970703L15.7935 1.17674L16.8856 2.30992H11.6125V2.60313H16.8856L15.7935 3.73632L15.9924 3.94235Z" fill="#31B939"/>
    <path d="M2.2314 0.970703L0.800049 2.45653L2.2314 3.94235L2.43031 3.73632L1.33827 2.60313H6.61127V2.30992H1.33827L2.43031 1.17674L2.2314 0.970703Z" fill="#31B939"/>
</svg>