<svg width="45" height="44" viewBox="0 0 45 44" fill="none" xmlns="http://www.w3.org/2000/svg">
    <rect x="0.981171" y="0.500427" width="42.8462" height="42.8462" rx="21.4231" fill="white"/>
    <path d="M22.4045 12.2778C17.0792 12.2778 12.7583 16.5986 12.7583 21.9239C12.7583 24.0563 13.4485 26.0203 14.6157 27.6196L13.3868 31.2559L17.2194 30.0606C18.7177 31.0146 20.4966 31.5701 22.4045 31.5701C27.7298 31.5701 32.0506 27.2493 32.0506 21.9239C32.0506 16.5986 27.7298 12.2778 22.4045 12.2778ZM26.8207 27.0977C25.0699 27.7992 22.9825 27.1202 20.6986 25.3862C18.4147 23.6523 16.9108 21.2113 16.8098 19.3988C16.7088 17.5863 18.1846 16.6716 18.9871 16.6772C19.7895 16.6828 20.6705 19.2473 20.6817 19.6401C20.693 20.0385 19.6997 20.7455 19.6604 21.0822C19.6212 21.4189 21.0128 23.0799 21.602 23.5288C22.1856 23.9721 23.3921 24.8251 24.015 24.7465C24.6322 24.6624 25.0419 23.4222 25.4347 23.3437C25.8275 23.2651 27.9711 24.3313 28.1843 24.6062C28.3976 24.8868 28.3751 26.4805 26.8207 27.0977Z" fill="var(--primary-color)"/>
</svg>